<svg width="119" height="22" viewBox="0 0 119 22" fill="none" xmlns="http://www.w3.org/2000/svg">
<path d="M76.7227 1.13568L93.7484 1.80372V4.59347L80.3243 3.53262L80.4051 8.09135L83.2934 7.77603L83.2153 10.018H80.4051L80.5235 20.1589L77.7509 19.5683L76.7227 1.13568Z" fill="#FFC64F"/>
<path d="M87.8047 17.1473V14.8974L95.751 14.5927L95.5195 6.74188L84.6553 7.42863L84.8464 19.7019H96.9031L97.5168 16.9202L87.8047 17.1473ZM87.689 9.33389H93.1022L93.2933 11.7362H87.689V9.33389Z" fill="#FFC64F"/>
<path d="M107.974 8.21963L107.678 5.80933L98.8653 6.48539L98.6123 14.5153L106.144 13.922L106.273 17.0512H100.187L99.5894 19.5015H109.635L108.443 11.0067L101.423 11.4663L101.549 8.30246L107.974 8.21963Z" fill="#FFC64F"/>
<path d="M95.7422 5.03972L95.8902 1.75829L118.666 1.4884L119 3.48986L113.166 3.45245L114.318 19.5015H112.609L110.305 3.50055L95.7422 5.03972Z" fill="#FFC64F"/>
<path d="M9.93555 2.15912L15.583 2.33815V17.166L24.5548 14.7183L24.8052 21.1449H11.0096L9.93555 2.15912Z" fill="#FFC64F"/>
<path d="M29.9138 7.30306L17.0469 6.7713L17.736 14.7905L21.0388 14.2373L20.6862 12.3374L26.6997 11.8484L26.7347 20.8857L33.0928 20.883L29.9138 7.30306ZM20.374 10.4348L19.8518 8.61243L26.0995 9.13083L26.4467 10.4348H20.374Z" fill="#FFC64F"/>
<path d="M21.502 5.53674L22.2691 2.15911L46.0971 1.17575L46.404 4.1579L35.4483 5.2909L38.7915 21.2999L34.7376 21.2812L32.2585 5.62225L21.502 5.53674Z" fill="#FFC64F"/>
<path d="M49.6802 21.698L47.5645 1.32272L53.1715 2.31143L56.8539 16.0384L55.5915 2.28471L59.6319 2.03887L59.8795 20.6799L54.2967 20.4207L51.9064 10.336L52.4555 21.1235L49.6802 21.698Z" fill="#FFC64F"/>
<path d="M70.9541 0L61.0967 2.07093L61.8235 20.3566L72.1278 19.1087L70.9541 0ZM65.0967 16.2922L64.1492 5.4539L68.6688 5.64363L68.6769 14.713L65.0967 16.2922Z" fill="#FFC64F"/>
<path d="M9.17103 12.9386L8.44962 1.50708L0 2.15909L1.14402 20.8349L5.19791 20.8536L4.04311 13.7002L9.17103 12.9386ZM3.03637 5.90548H5.63936L5.98661 10.2478L3.64473 10.189L3.03637 5.90548Z" fill="#FFC64F"/>
<path d="M46.2104 6.02307L38.1592 7.50345L40.3261 20.7147L42.5791 20.696L41.4647 14.6275L44.4715 14.9107L44.8268 21.9973H47.4164L46.2104 6.02307ZM41.2036 12.5218L40.8349 9.22968L43.7662 8.66318L44.3181 12.7276L41.2036 12.5218Z" fill="#FFC64F"/>
<path d="M18.0352 1.34143L20.8724 2.06025L19.8576 5.3871L17.0742 5.41649L18.0352 1.34143Z" fill="#FFC64F"/>
</svg>
