<svg width="132" height="78" viewBox="0 0 132 78" fill="none" xmlns="http://www.w3.org/2000/svg">
<path d="M111.211 52.2686H105.156L94.0674 77.16H100.388L103.018 68.9021L107.157 68.8874L107.462 76.7866H112.388L111.211 52.2686ZM107.462 64.7118H104.299L107.462 58.0358V64.7118Z" fill="#FFC64F"/>
<path d="M1.3645 43.0282L32.5233 44.2563V49.3849L7.95588 47.4347L8.10367 55.8154L13.3896 55.2357L13.2467 59.3572H8.10367L8.32043 78L3.24635 76.9144L1.3645 43.0282Z" fill="#FFC64F"/>
<path d="M21.6461 72.4637V68.3274L36.1885 67.7674L35.7648 53.3346L15.8823 54.5971L16.2321 77.16H38.297L39.4201 72.0461L21.6461 72.4637ZM21.4343 58.0996H31.341L31.6908 62.5159H21.4343V58.0996Z" fill="#FFC64F"/>
<path d="M58.5587 56.0462L58.0168 51.6201L41.8882 52.863L41.4202 67.6249L55.2089 66.5343L55.4453 72.2819H44.307L43.2133 76.7915H61.5983L59.4159 61.1748L46.5681 62.0198L46.7997 56.2034L58.5587 56.0462Z" fill="#FFC64F"/>
<path d="M36.1736 50.2053L36.4445 44.1679L78.1259 43.6767L78.7368 47.3561L68.0615 47.2873L70.1699 76.7915H67.0417L62.8248 47.3757L36.1736 50.2053Z" fill="#FFC64F"/>
<path d="M73.5051 58.5762H78.4166V77.16H74.0864L73.5051 58.5762Z" fill="#FFC64F"/>
<path d="M72.2786 50.5787H78.4167V55.5501H73.5052L72.2786 50.5787Z" fill="#FFC64F"/>
<path d="M81.8157 44.6493L82.4659 77.16H91.1313L99.2942 48.707L109.551 48.4221L109.91 44.5314L94.959 44.2416L86.5548 71.6482L86.7272 44.6493H81.8157Z" fill="#FFC64F"/>
<path d="M113.531 42.0506L121.029 41.304L120.561 72.4145L131.507 70.538V76.7915L115.236 77.16L113.531 42.0506Z" fill="#FFC64F"/>
<path d="M18.1829 3.96927L28.5182 4.2984V31.5576L44.9376 27.0578L45.3957 38.8723H20.1485L18.1829 3.96927Z" fill="#FFC64F"/>
<path d="M54.7459 13.4258L31.1982 12.4482L32.4594 27.1905L38.5039 26.1736L37.8586 22.6808L48.8639 21.7819L48.928 38.3958L60.5639 38.3909L54.7459 13.4258ZM37.2871 19.1832L36.3314 15.8329L47.7654 16.7859L48.4009 19.1832H37.2871Z" fill="#FFC64F"/>
<path d="M39.3513 10.1786L40.7553 3.96928L84.3629 2.1615L84.9244 7.6438L64.8744 9.72668L70.9929 39.1572L63.5739 39.1228L59.0368 10.3358L39.3513 10.1786Z" fill="#FFC64F"/>
<path d="M90.9197 39.8892L87.0476 2.43167L97.3091 4.24928L104.048 29.4846L101.738 4.20016L109.132 3.74821L109.585 38.0175L99.3683 37.541L94.9937 19.0014L95.9987 38.833L90.9197 39.8892Z" fill="#FFC64F"/>
<path d="M129.852 0L111.812 3.80715L113.142 37.4231L132 35.129L129.852 0ZM119.132 29.9513L117.398 10.0263L125.67 10.3751L125.684 27.048L119.132 29.9513Z" fill="#FFC64F"/>
<path d="M16.7839 23.7861L15.4636 2.77063L0 3.96927L2.09367 38.3024L9.51267 38.3368L7.39929 25.1862L16.7839 23.7861ZM5.55686 10.8565H10.3206L10.9561 18.8393L6.6702 18.7312L5.55686 10.8565Z" fill="#FFC64F"/>
<path d="M84.5697 11.0727L69.8352 13.7942L73.8009 38.0814L77.9242 38.047L75.8847 26.8908L81.3874 27.4115L82.0376 40.4393H86.7767L84.5697 11.0727ZM75.4068 23.0198L74.7319 16.9676L80.0967 15.9262L81.1066 23.398L75.4068 23.0198Z" fill="#FFC64F"/>
<path d="M33.0062 2.46606L38.1986 3.78752L36.3413 9.90352L31.2476 9.95756L33.0062 2.46606Z" fill="#FFC64F"/>
</svg>
