<svg width="42" height="41" viewBox="0 0 42 41" fill="none" xmlns="http://www.w3.org/2000/svg">
<path d="M2.72874 25.9209C2.64091 25.0335 3.20241 9.98227 4.07446 9.30497C5.0312 8.56495 23.5104 3.09635 25.8913 3.55729C28.1906 4.00255 37.4506 12.1177 38.5422 14.4474C39.5617 16.6173 36.3182 32.3364 35.9637 32.835C35.5528 33.4151 14.9562 37.9524 14.0434 37.2876C11.5402 35.469 2.80717 26.7236 2.72874 25.9209Z" fill="white"/>
<path d="M5.37318 25.9209C5.12537 22.4905 5.57394 18.8625 5.82489 15.4415C5.90017 14.4193 5.98173 13.4002 6.09466 12.3811C6.11661 12.171 6.14171 11.964 6.1668 11.7571C6.26091 10.9794 6.0727 12.2807 6.1919 11.5783C6.24836 11.2522 6.35815 10.9042 6.38325 10.5749C6.38952 10.5059 6.45853 10.4056 6.44912 10.3397C6.49931 10.7223 5.58649 11.4592 5.44533 11.5626C5.62413 11.4309 6.15739 11.2836 5.27594 11.6128C5.8688 11.3933 6.45853 11.1738 7.05767 10.9732C11.2391 9.56838 15.5084 8.37055 19.787 7.30443C20.7375 7.06925 21.688 6.84035 22.6447 6.63653C23.0933 6.53932 23.5418 6.44839 23.9904 6.36373C24.1723 6.32923 24.3543 6.30101 24.5362 6.26652C25.1542 6.1505 24.6774 6.23829 24.6899 6.23515C24.9409 6.21007 25.2546 6.23515 25.4961 6.17557C26.1047 6.01879 24.7589 6.29473 25.4428 6.17871C25.2106 6.21948 24.9597 5.94355 25.2797 6.10974C25.4679 6.20694 25.6529 6.30414 25.8349 6.41075C26.2929 6.67415 26.732 6.97203 27.1649 7.27306C29.0784 8.61199 30.857 10.1642 32.5666 11.7508C33.4449 12.5661 34.3075 13.4033 35.12 14.2875C35.4086 14.6042 35.7003 14.9241 35.9638 15.2627C35.6376 14.8426 35.8603 15.1561 35.9293 15.2282C36.3308 15.6547 35.9418 15.7833 36.0297 15.2377C36.0265 15.2596 36.0767 15.4258 36.0924 15.4603C36.2712 15.9087 36.0767 14.7861 36.0767 15.3505C36.0767 15.6798 36.0987 16.0059 36.0924 16.3383C36.0736 17.3103 35.9732 18.2824 35.8634 19.2513C35.6281 21.3114 35.2047 23.7604 34.7812 26.0055C34.4518 27.7521 34.1193 29.5049 33.6833 31.2296C33.6331 31.424 33.5359 31.6466 33.517 31.8504C33.4951 32.095 33.1155 32.3741 33.6958 31.4741C33.1249 32.3615 34.9851 30.3202 34.5397 30.615C34.7059 30.5052 35.236 30.3892 34.64 30.5491C34.3546 30.6244 34.0723 30.7216 33.7868 30.8031C29.9034 31.8943 25.929 32.7065 21.9765 33.4998C20.8034 33.735 19.6302 33.9607 18.4539 34.174C17.9394 34.2649 17.425 34.3558 16.9105 34.4373C16.716 34.4687 16.5216 34.5 16.3271 34.5314C16.2518 34.5439 15.408 34.6631 15.8346 34.6067C16.1577 34.5628 15.248 34.6725 15.0629 34.6882C14.8716 34.7007 14.5391 34.6474 14.3634 34.7133C14.0999 34.8105 15.1445 34.8481 14.8245 34.7791C15.4048 35.0739 15.546 35.1209 15.248 34.9171C15.5178 35.1272 15.5742 35.168 15.4143 35.0394C15.11 34.6913 14.6614 34.406 14.3132 34.0987C12.2962 32.3114 10.3702 30.4143 8.4818 28.489C7.62544 27.6141 6.77535 26.733 5.95977 25.8237C5.67118 25.5007 5.38573 25.1746 5.10968 24.8391C4.8901 24.5725 5.33554 25.3721 5.20065 24.9551C5.09714 24.6384 5.07518 24.3907 5.27594 25.231C4.48859 21.9198 -0.615076 23.3214 0.175411 26.6358C0.583202 28.3479 2.53433 29.9345 3.70124 31.1543C5.60531 33.1455 7.56898 35.0864 9.59225 36.9521C10.9693 38.2221 12.4562 39.9687 14.4544 40.0094C16.1106 40.0439 17.8328 39.6363 19.4577 39.3509C24.1629 38.5263 28.8557 37.5197 33.4888 36.3564C34.6965 36.0522 36.1645 35.8233 37.2499 35.168C38.6866 34.3025 38.8748 32.3239 39.1947 30.8313C40.2079 26.1247 41.2839 21.1797 41.378 16.3508C41.4188 14.1809 40.7789 12.7981 39.3924 11.1676C37.6577 9.12625 35.6062 7.32009 33.5578 5.60488C31.7729 4.11544 29.9002 2.48177 27.7797 1.47835C26.0137 0.64113 24.3261 0.945284 22.469 1.29648C17.6979 2.19328 12.9895 3.59178 8.35319 5.01851C6.59028 5.56098 4.49486 6.00939 2.87938 6.94696C1.05059 8.00995 1.01923 10.4025 0.809056 12.2619C0.501644 15.0213 0.354212 17.8026 0.225601 20.5777C0.144043 22.3337 -0.0535791 24.1712 0.0718951 25.9303C0.32598 29.298 5.62099 29.3231 5.37318 25.9209Z" fill="white"/>
</svg>
