<svg width="158" height="158" viewBox="0 0 158 158" fill="none" xmlns="http://www.w3.org/2000/svg">
<g clip-path="url(#clip0)">
<path d="M90.5789 145.736C127.562 139.215 152.256 103.948 145.735 66.9649C139.214 29.9818 103.947 5.2875 66.9638 11.8086C29.9807 18.3297 5.28641 53.5969 11.8075 90.58C18.3287 127.563 53.5958 152.257 90.5789 145.736Z" fill="#FFC64F"/>
<path d="M42.0371 107.405L41.999 107.838C41.9667 108.231 41.8964 108.516 41.7992 108.686C41.7021 108.856 41.5006 108.974 41.1987 109.027L39.5785 109.313L39.6547 113.923L43.6836 113.213C45.193 112.947 46.1041 111.738 46.4233 109.586L50.587 83.234C49.2824 83.4005 47.9873 83.5844 46.7077 83.7846L45.9007 83.9269L44.4474 96.1821L42.6234 84.5048L42.0689 84.6026C40.6133 84.8847 39.1866 85.187 37.7878 85.5036L41.8342 104.958C42.0131 105.936 42.0742 106.751 42.0371 107.405Z" fill="white"/>
<path d="M59.8422 110.364L59.5601 93.1298L62.3248 109.926L64.2099 109.594L66.2996 91.9414L66.5817 109.175L70.9864 108.399L70.5403 82.5613C68.4759 82.4172 66.4184 82.3481 64.3594 82.3427L62.9802 95.5947L61.0082 82.3937C59.0188 82.4586 57.0453 82.5779 55.0878 82.7516L55.5792 111.115L59.8422 110.364Z" fill="white"/>
<path d="M72.146 101.321C72.1848 103.595 72.8104 105.27 74.0238 106.351C75.2372 107.433 76.9005 107.788 79.0073 107.416L80.0238 107.237C83.3628 106.648 85.0152 103.988 84.9872 99.2541L84.7248 84.2208C82.9702 84.1046 81.2098 83.9195 79.4498 83.6645C79.5386 83.9157 79.598 84.2164 79.6077 84.5959L79.8852 100.471C79.8923 101.556 79.4991 102.172 78.6982 102.313C77.768 102.477 77.2865 102.016 77.2486 100.936L76.971 85.0608C76.9545 84.3904 77.0321 83.8939 77.1905 83.5675C77.2329 83.4838 77.2836 83.4113 77.3478 83.3428C75.636 83.073 73.9155 82.8618 72.1986 82.7072C71.9709 83.7574 71.862 84.9771 71.8886 86.3889L72.146 101.321Z" fill="white"/>
<path d="M91.2545 104.825L91.0434 93.2889L93.8711 92.7903C95.4789 92.5068 96.5832 91.8166 97.195 90.7115C97.8007 89.6074 98.0839 88.1156 98.0374 86.2309L98.0001 83.8936C96.3676 84.0735 94.7191 84.199 93.0631 84.2814L93.1041 86.6752C93.1279 87.2427 93.067 87.6536 92.9336 87.9058C92.7951 88.1652 92.4882 88.3337 92.0138 88.4173L90.9973 88.5965L90.9164 84.355C89.2959 84.3867 87.6667 84.369 86.0266 84.2898L86.394 105.682L91.2545 104.825Z" fill="white"/>
<path d="M101.085 91.0164L98.2158 103.597L103.335 102.695L105.856 91.4519L106.269 91.3791L106.458 102.144L111.319 101.287L110.979 81.5288C109.392 81.9293 107.769 82.3045 106.124 82.6326L106.186 86.6933L105.243 86.8595C104.714 86.9529 104.364 86.8811 104.194 86.638C104.024 86.3948 103.943 86.0027 103.948 85.4555L103.905 83.0494C102.297 83.3329 100.664 83.5827 99.0088 83.7792L99.0631 86.825C99.0614 89.1564 99.7399 90.5549 101.085 91.0164Z" fill="white"/>
<path d="M43.6484 56.6359L42.0929 71.5895L39.9583 57.2865L34.1922 58.3033L34.5337 78.0358C35.9231 77.7019 37.3465 77.381 38.7927 77.0815L38.6605 69.1268L39.9393 76.8476C41.4175 76.5488 42.9257 76.2765 44.4495 76.0206L45.4062 67.9373L45.537 75.8479C46.9901 75.6234 48.4526 75.4163 49.9391 75.2368L49.5994 55.5866L43.6484 56.6359Z" fill="white"/>
<path d="M57.9589 54.1125L56.5117 66.3665L54.6877 54.6893L49.8271 55.5464L53.8381 74.8351C55.6528 74.6803 57.4741 74.5624 59.3175 74.4978L62.6655 53.2826L57.9589 54.1125Z" fill="white"/>
<path d="M63.2375 71.4754L63.3034 74.4429C64.9304 74.4482 66.56 74.5039 68.1899 74.5976L68.0981 70.6184L63.2375 71.4754Z" fill="white"/>
<path d="M75.2385 68.4256C75.162 66.0825 74.4012 64.7938 72.9612 64.5523C74.1342 63.8563 74.707 62.4214 74.6855 60.2465L74.6049 56.6909C74.5479 54.8907 74.019 53.5484 73.0204 52.6764C72.028 51.8033 70.5086 51.544 68.4757 51.9024L67.6071 52.0556C65.876 52.3608 64.6656 53.0253 63.9769 54.055C63.2883 55.0848 62.983 56.5233 63.0487 58.3729L63.1196 62.089L67.9432 61.2385L67.9019 58.3746C67.8867 57.8565 67.9564 57.4948 68.0984 57.2919C68.2405 57.089 68.4768 56.9521 68.8033 56.8945C69.481 56.775 69.8208 57.1534 69.8178 58.0368L69.8691 61.642C69.8788 62.1294 69.8132 62.4777 69.6845 62.6845C69.5497 62.8925 69.2753 63.0298 68.8441 63.1059L66.5093 63.5176L66.6039 68.665L69.0496 68.2338C69.4747 68.1588 69.7631 68.2096 69.9098 68.3933C70.0566 68.5771 70.1348 68.9127 70.1445 69.4L70.2677 74.7457C71.9628 74.8851 73.6554 75.0821 75.3455 75.3367C75.3611 75.0291 75.3633 74.7174 75.3623 74.3873L75.2385 68.4256Z" fill="white"/>
<path d="M89.1429 48.6139L89.6243 76.4523C91.2571 76.4184 92.8802 76.3292 94.4956 76.1968L94.0035 47.7569L89.1429 48.6139Z" fill="white"/>
<path d="M88.4079 71.9663L88.3034 64.9976C88.2927 61.1184 86.679 59.4593 83.4632 60.0263L81.0915 60.4445L80.9313 50.0619L76.0707 50.9189L76.4949 75.5152C76.567 75.5279 76.6453 75.5395 76.7174 75.5522C80.3174 76.156 83.9114 76.437 87.4608 76.4654C87.4709 76.4509 87.4872 76.4353 87.4974 76.4208C88.1654 75.382 88.4631 73.9003 88.4079 71.9663ZM83.4609 66.3533L83.5481 72.3596C83.5473 72.9314 83.465 73.3651 83.3146 73.6648C83.158 73.9655 82.8173 74.159 82.2937 74.2513L81.3511 74.4175L81.1868 65.1282L82.1294 64.962C82.6592 64.8685 83.0157 64.9454 83.2001 65.1987C83.3846 65.4521 83.4715 65.8369 83.4609 66.3533Z" fill="white"/>
<path d="M108.167 45.2596L103.232 46.1297L100.368 57.6236L100.183 46.6674L95.3222 47.5244L95.8154 76.0785C97.4573 75.916 99.0782 75.7064 100.679 75.4559L100.461 63.0128L103.951 74.8852C105.666 74.5575 107.359 74.1827 109.008 73.7713L104.678 59.1947L108.167 45.2596Z" fill="white"/>
<path d="M112.122 44.5622L109.214 73.7159C110.717 73.3428 112.196 72.9361 113.645 72.5091L113.934 68.2784L116.91 67.7538L117.365 71.3449C118.919 70.8295 120.425 70.2909 121.884 69.7413L117.882 43.5466L112.122 44.5622ZM114.329 63.2416L115.034 53.3671L116.288 62.8961L114.329 63.2416Z" fill="white"/>
<path d="M113.43 79.5404L112.82 79.648L112.756 79.2845L114.425 78.9901L114.489 79.3536L113.88 79.4611L114.153 81.0136L113.71 81.0918L113.436 79.5394L113.43 79.5404Z" fill="white"/>
<path d="M116.734 80.5584L116.532 79.4126L116.139 80.4602L115.942 80.4949L115.218 79.6697L115.416 80.7909L115.003 80.8637L114.666 78.9478L115.029 78.8837L115.953 79.9466L116.452 78.6328L116.816 78.5687L117.16 80.4835L116.734 80.5584Z" fill="white"/>
</g>
<defs>
<clipPath id="clip0">
<rect width="136" height="136" fill="white" transform="translate(0 23.6161) rotate(-10)"/>
</clipPath>
</defs>
</svg>
